<?xml version="1.0" encoding="UTF-8"?>
<svg width="125px" height="34px" viewBox="0 0 125 34" version="1.1" xmlns="http://www.w3.org/2000/svg" xmlns:xlink="http://www.w3.org/1999/xlink">
    <title>logo_applemusic_onlight</title>
    <defs>
        <linearGradient x1="50%" y1="99.6348905%" x2="50%" y2="2.15064519%" id="linearGradient-1">
            <stop stop-color="#FA233B" offset="0%"></stop>
            <stop stop-color="#FB5C74" offset="100%"></stop>
        </linearGradient>
    </defs>
    <g id="Page-1" stroke="none" stroke-width="1" fill="none" fill-rule="evenodd">
        <g id="logo_applemusic_onlight">
            <g id="icons" transform="translate(37.000000, 10.000000)" fill="#000000" fill-rule="nonzero">
                <g id="_Group_7_1_">
                    <path d="M7.77584,9.17516 L3.38652,9.17516 L2.33312,12.28752 L0.4738,12.28752 L4.6322,0.77188 L6.56328,0.77188 L10.72168,12.28752 L8.83016,12.28752 L7.77584,9.17516 Z M3.841,7.73904 L7.32044,7.73904 L5.60464,2.68732 L5.5568,2.68732 L3.841,7.73904 Z" id="_Compound_Path_10_1_"></path>
                    <path d="M19.69076,8.09048 C19.69076,10.70052 18.2942,12.37676 16.1874,12.37676 C15.09812,12.4338 14.07232,11.8634 13.54608,10.90844 L13.50652,10.90844 L13.50652,15.06592 L11.78244,15.06592 L11.78244,3.89252 L13.4504,3.89252 L13.4504,5.29 L13.4826,5.29 C14.03184,4.33964 15.05948,3.76924 16.15612,3.80512 C18.28684,3.80512 19.69076,5.48872 19.69076,8.09048 Z M17.91976,8.09048 C17.91976,6.39124 17.04208,5.27344 15.70072,5.27344 C14.3842,5.27344 13.49824,6.41424 13.49824,8.09048 C13.49824,9.78236 14.3842,10.9158 15.70072,10.9158 C17.04116,10.9158 17.91976,9.80628 17.91976,8.09048 L17.91976,8.09048 Z" id="_Compound_Path_11_1_"></path>
                    <path d="M28.9248,8.09048 C28.9248,10.70052 27.52824,12.37676 25.42144,12.37676 C24.33216,12.4338 23.30636,11.8634 22.78012,10.90844 L22.74056,10.90844 L22.74056,15.06592 L21.01648,15.06592 L21.01648,3.89252 L22.68444,3.89252 L22.68444,5.29 L22.71664,5.29 C23.26588,4.33964 24.29352,3.76924 25.39016,3.80512 C27.51996,3.80512 28.9248,5.48872 28.9248,8.09048 Z M27.15288,8.09048 C27.15288,6.39124 26.2752,5.27344 24.93384,5.27344 C23.61732,5.27344 22.73136,6.41424 22.73136,8.09048 C22.73136,9.78236 23.61732,10.9158 24.93384,10.9158 C26.2752,10.9158 27.15288,9.80628 27.15288,8.09048 L27.15288,8.09048 Z" id="_Compound_Path_12_1_"></path>
                    <polygon id="_Compound_Path_13_1_" points="30.314 0.77188 32.03716 0.77188 32.03716 12.28844 30.314 12.28844"></polygon>
                    <path d="M41.00808,9.82284 C40.61616,11.46412 39.07148,12.56168 37.39248,12.3924 C34.9508,12.3924 33.43372,10.75572 33.43372,8.13096 C33.43372,5.497 34.95816,3.78948 37.32072,3.78948 C39.6428,3.78948 41.10376,5.38568 41.10376,7.93132 L41.10376,8.52196 L35.17436,8.52196 L35.17436,8.62592 C35.11916,9.2506 35.33444,9.86976 35.76684,10.32516 C36.19924,10.78056 36.80552,11.02804 37.43296,11.00412 C38.26924,11.08232 39.05768,10.60208 39.37232,9.82284 L41.00808,9.82284 Z M35.1817144,7.31676 L39.37968,7.31676 C39.41096,6.75464 39.20672,6.2054 38.81572,5.80152 C38.42472,5.39672 37.88284,5.17408 37.32072,5.18604 C36.754,5.18236 36.20844,5.40592 35.80732,5.80612 C35.40528,6.2054 35.1808,6.74912 35.1817144,7.31676 Z" id="_Compound_Path_14_1_"></path>
                    <polygon id="_Compound_Path_15_1_" points="55.97188 12.28844 55.97188 3.81248 55.91576 3.81248 52.44368 12.20104 51.11888 12.20104 47.63944 3.81248 47.58424 3.81248 47.58424 12.28844 45.95584 12.28844 45.95584 0.77188 48.02216 0.77188 51.75 9.86148 51.8144 9.86148 55.53304 0.77188 57.60856 0.77188 57.60856 12.28844"></polygon>
                    <path d="M66.7874,12.28844 L65.136,12.28844 L65.136,10.84404 L65.09552,10.84404 C64.64104,11.85604 63.5996,12.47244 62.49376,12.38412 C61.67036,12.43196 60.86812,12.11456 60.30048,11.51564 C59.73284,10.91672 59.45776,10.09884 59.54976,9.28004 L59.54976,3.89252 L61.27384,3.89252 L61.27384,8.94516 C61.27384,10.22212 61.88012,10.90016 63.06876,10.90016 C63.63456,10.91856 64.18104,10.68948 64.56468,10.27272 C64.94832,9.85596 65.13048,9.292 65.06424,8.72988 L65.06424,3.89344 L66.78832,3.89344 L66.7874,12.28844 Z" id="_Compound_Path_16_1_"></path>
                    <path d="M71.68916,3.79684 C73.54848,3.79684 74.88156,4.82724 74.92112,6.3112 L73.30192,6.3112 C73.22924,5.56876 72.59996,5.11428 71.64224,5.11428 C70.70752,5.11428 70.0856,5.54484 70.0856,6.19988 C70.0856,6.7022 70.50052,7.03708 71.37084,7.25328 L72.78304,7.57988 C74.47492,7.98744 75.1134,8.61028 75.1134,9.8394 C75.1134,11.35556 73.67728,12.39332 71.6266,12.39332 C69.64768,12.39332 68.31368,11.37948 68.18672,9.84676 L69.89424,9.84676 C70.01476,10.6536 70.6606,11.08416 71.70664,11.08416 C72.7352,11.08416 73.38288,10.66096 73.38288,9.99028 C73.38288,9.47232 73.06364,9.19264 72.18596,8.96908 L70.68544,8.602 C69.16928,8.23492 68.40292,7.4612 68.40292,6.29648 C68.40108,4.81068 69.73324,3.79684 71.68916,3.79684 Z" id="_Compound_Path_17_1_"></path>
                    <path d="M76.45568,1.68176 C76.4474,1.2742 76.6866,0.90252 77.06104,0.74152 C77.43548,0.58052 77.86972,0.66148 78.15952,0.9476 C78.45024,1.23372 78.53856,1.66612 78.38308,2.04332 C78.2276,2.4196 77.8596,2.66524 77.45296,2.6634 C76.90648,2.66708 76.4612,2.22824 76.45568,1.68176 Z M76.59092,3.89252 L78.315,3.89252 L78.315,12.28844 L76.59092,12.28844 L76.59092,3.89252 Z" id="_Compound_Path_18_1_"></path>
                    <path d="M85.74032,6.78132 C85.58392,5.82912 84.7228,5.15568 83.7614,5.23296 C82.4366,5.23296 81.55892,6.34248 81.55892,8.09048 C81.55892,9.87804 82.44396,10.95628 83.77796,10.95628 C84.72832,11.05104 85.58852,10.38956 85.74124,9.44748 L87.4,9.44748 C87.18564,11.25344 85.57104,12.55892 83.76048,12.39332 C81.36664,12.39332 79.80172,10.75664 79.80172,8.0914 C79.80172,5.48228 81.36572,3.7904 83.74392,3.7904 C85.56736,3.63584 87.18196,4.9634 87.38344,6.78224 L85.74032,6.78132 Z" id="_Compound_Path_19_1_"></path>
                </g>
            </g>
            <g id="icon">
                <path d="M34,10.6352 C34,10.2283333 34,9.82203333 34,9.4163 C34,9.0763 34,8.7363 33.9847,8.3963 C33.9750973,7.64837104 33.9091775,6.90222746 33.7875,6.1642 C33.6618809,5.42498521 33.4263742,4.70872394 33.0888,4.0392 C32.4034933,2.69332057 31.3097065,1.59893867 29.9642,0.9129 C29.295556,0.576091876 28.580532,0.340615215 27.8426,0.2142 C27.1039919,0.0925970115 26.3572889,0.0266780245 25.6088,0.017 C25.2688,0.0068 24.9288,0.0034 24.5888,0.0017 L9.4163,0.0017 C9.0763,0.0017 8.7363,0.0017 8.3963,0.017 C7.6461071,0.0264224026 6.89768971,0.0923422342 6.1574,0.2142 C5.41912399,0.340136764 4.70394797,0.576236538 4.0358,0.9146 C2.69170171,1.59959762 1.5986294,2.6920749 0.9129,4.0358 C0.57534417,4.70473295 0.339834111,5.4204314 0.2142,6.1591 C0.0925970115,6.89770812 0.0266780245,7.64441113 0.017,8.3929 C0.0068,8.7329 0.0034,9.0729 0.0017,9.4129 C0.000566666667,9.8243 0,10.2317333 0,10.6352 L0,23.3631 C0,23.7677 0,24.174 0,24.582 C0,24.922 0,25.262 0.0153,25.602 C0.0249010317,26.3504928 0.0908205282,27.0972015 0.2125,27.8358 C0.338134111,28.5744686 0.57364417,29.290167 0.9112,29.9591 C1.5969294,31.3028251 2.69000171,32.3953024 4.0341,33.0803 C4.70266879,33.4176497 5.41768946,33.6536982 6.1557,33.7807 C6.89424388,33.9025864 7.64101141,33.9679428 8.3895,33.9762 C8.7295,33.9864 9.0695,33.9898 9.4095,33.9915 C9.8158,33.9915 10.2221,33.9915 10.6284,33.9915 L24.5684,33.9915 C24.9084,33.9915 25.2484,33.9915 25.5884,33.9762 C26.3368957,33.9680884 27.0836744,33.9027311 27.8222,33.7807 C28.5609476,33.6544788 29.2766426,33.4183969 29.9455,33.0803 C31.2886207,32.3945384 32.3809384,31.3022207 33.0667,29.9591 C33.4047969,29.2902426 33.6408788,28.5745476 33.7671,27.8358 C33.8889864,27.0972561 33.9543428,26.3504886 33.9626,25.602 C33.9728,25.262 33.9762,24.922 33.9779,24.582 C33.9779,24.1757 33.9779,23.7694 33.9779,23.3631 L33.9779,10.6352 L34,10.6352 Z" id="Path" fill="url(#linearGradient-1)"></path>
                <g id="Glyph" transform="translate(6.630000, 5.100000)" fill="#FFFFFF">
                    <path d="M17.4063,0.0952 C17.3247,0.0952 16.5937,0.2312 16.5053,0.2499 L6.4005,2.2899 L6.4005,2.2899 C6.16993722,2.32961828 5.95305807,2.42665855 5.7698,2.5721 C5.57946719,2.74145508 5.45838742,2.97513902 5.4298,3.2283 C5.41432005,3.34095981 5.40693447,3.45458423 5.4077,3.5683 L5.4077,16.2163 C5.43494872,16.5097469 5.35525672,16.8031583 5.1833,17.0425 C4.99286366,17.2556828 4.72981169,17.3902393 4.4455,17.4199 L3.7859,17.5525 C3.15025988,17.6573589 2.5246771,17.8160295 1.9159,18.0268 C1.4990179,18.1761406 1.12168425,18.4185877 0.8126,18.7357 C-0.195690877,19.8221264 -0.135646007,21.5193441 0.9469,22.5318 C1.29013299,22.8507384 1.7149517,23.0684433 2.1743,23.1608 C2.6843,23.2628 3.213,23.2271 3.9967,23.069 C4.41224548,22.9915559 4.81170769,22.8444158 5.1782,22.6338 C5.54672356,22.4169591 5.86395164,22.1229287 6.1081,21.7719 C6.3512805,21.4212331 6.51967486,21.0242622 6.6028,20.6057 C6.685546,20.1939483 6.72316814,19.7744044 6.715,19.3545 L6.715,8.3878 C6.715,7.7996 6.885,7.6449 7.3559,7.5378 C7.3559,7.5378 15.7556,5.8378 16.1483,5.7681 C16.694,5.6627 16.9524,5.8191 16.9524,6.392 L16.9524,13.872 C16.9524,14.1678 16.9524,14.4687 16.7467,14.722 C16.5567145,14.9345741 16.2942069,15.068556 16.0106,15.0977 L15.3493,15.232 C14.7137802,15.3366399 14.0882264,15.4947344 13.4793,15.7046 C13.0629434,15.8550061 12.685835,16.0973085 12.376,16.4135 C11.8795614,16.9293592 11.613587,17.6245163 11.6388998,18.3400031 C11.6642126,19.0554899 11.9786476,19.730113 12.5103,20.2096 C12.8544859,20.5261773 13.2790987,20.7420124 13.7377,20.8335 C14.2477,20.9355 14.7781,20.8981 15.5618,20.7417 C15.9764966,20.665852 16.3753847,20.520436 16.7416,20.3116 C17.1100464,20.0953805 17.4272866,19.8019188 17.6715,19.4514 C17.9144249,19.1005922 18.082796,18.7036763 18.1662,18.2852 C18.2433685,17.872267 18.2752904,17.452152 18.2614,17.0323 L18.2614,0.9877 C18.2597,0.4063 17.9537,0.0476 17.4063,0.0952 Z" id="Path"></path>
                </g>
            </g>
        </g>
    </g>
</svg>